<?xml version="1.0" standalone="no"?><!DOCTYPE svg PUBLIC "-//W3C//DTD SVG 1.1//EN" "http://www.w3.org/Graphics/SVG/1.1/DTD/svg11.dtd"><svg t="1690539621089" class="icon" viewBox="0 0 1099 1024" version="1.1" xmlns="http://www.w3.org/2000/svg" p-id="12214" width="32.197265625" height="30" xmlns:xlink="http://www.w3.org/1999/xlink"><path d="M664.3 414.3c-30.1 0-232.2 251.1-294.9 251.1h-38.6c-15.3-0.6-27.3-13.2-27.3-28.4 0-15.3 12-27.8 27.3-28.5h38.5c39.7 0 241.8-251.1 295-251.1h36.9l-21.3-20c-10.8-10.4-11.2-27.5-0.8-38.3 0.2-0.3 0.5-0.5 0.8-0.8 11.2-11.1 29.2-11.1 40.5-0.1l70.1 69.6c11.1 11 11.2 28.9 0.3 40l-0.3 0.3-70.1 69.5c-11.2 11-29.2 11-40.2-0.2l-0.2-0.2c-11.2-11.3-11.2-29.5 0-40.7l21.3-22.1-37-0.1z m56 130.7c-11.2-11.1-29.2-11-40.4 0.1-11.2 11.5-11.2 29.8 0 41.4l21.3 22.1h-36.9c-23.5 0-19.7-4.1-58.5-40.3-11.4-10.9-29.5-10.6-40.5 0.8-10.8 11.8-10.2 30 1.4 41 59.2 55.2 56.1 55.3 97.6 55.3h36.9l-21.3 20c-8.3 8-10.8 20.2-6.3 30.7 4.5 10.6 15 17.3 26.5 17 7.3 0 14.7-2.9 20.2-8.4l70.2-69.7c11.1-11.1 11.2-29.1 0.1-40.2l-0.1-0.1-70.2-69.7z m-351-130.7c30.1 0 29.3 10.3 65.1 42.6 11.3 10.8 29.2 10.5 40.1-0.8l0.3-0.3c10.6-12 9.7-30.2-2-41.1-55.9-50.5-56.9-57.2-103.5-57.2h-38.5c-15.3 0.6-27.3 13.2-27.3 28.4 0 15.3 12 27.8 27.3 28.5l38.5-0.1z" fill="#fffffe" p-id="12215"></path><path d="M848.2 192.1c11.8 0 21.3 9.6 21.3 21.3v597.3c0 11.8-9.5 21.3-21.3 21.3H250.9c-11.8 0-21.3-9.5-21.3-21.3V213.4c0-11.8 9.6-21.3 21.3-21.3h597.3z m-597.3-64c-47.1 0-85.3 38.2-85.3 85.3v597.3c0 47.1 38.2 85.3 85.3 85.3h597.3c47.1 0 85.3-38.2 85.3-85.3V213.4c0-47.1-38.2-85.3-85.3-85.3H250.9z" fill="#fffffe" p-id="12216"></path></svg>